<svg id="Layer_1" data-name="Layer 1" xmlns="http://www.w3.org/2000/svg" viewBox="0 0 2053.55 602.5"><defs><style>.cls-1{fill:#101e45;}.cls-2{fill:#128bc0;}</style></defs><path class="cls-1" d="M434.45,189.89c12.14-2.66,23.76-5.35,35.45-7.73a497.85,497.85,0,0,1,88.24-9.75c34.38-.78,66.23,6,94,28.78,2.92-1.69,5.74-3.28,8.53-4.93,40.13-23.84,83.06-29.91,128-18.4,41.84,10.72,65.34,39.43,73.12,81.07a309.43,309.43,0,0,1,4.87,48.63c.76,29,.23,58,.19,87,0,2.62-.37,5.24-.61,8.47H778.47V391.55c0-22.34.45-44.68-.18-67a253.42,253.42,0,0,0-3.93-39.67c-6.7-35.49-33.07-39.66-55.47-35.58-10.42,1.89-20.76,4.68-29.89,11.22,9.39,44.59,4.52,89.66,5.46,134.49.59,28.65.11,57.33.11,86V492.3h-88c-.12-3.81-.33-7.66-.33-11.51,0-52.34.21-104.67-.19-157-.09-12.59-2.14-25.18-3.59-37.73a51.48,51.48,0,0,0-2.92-10.56c-5.88-17-18.12-26.31-35.82-27-13.23-.51-26.52.85-40.86,1.42-1.21,27.73-.41,54.26-.56,80.76-.15,27,0,54,0,81v80.5H474.1c-1.09-2.84-2.34-5.88-3.43-9-11.28-32-22.61-64.06-33.7-96.17a45.84,45.84,0,0,1-2.8-14.54q-.29-87.51-.11-175C434.06,195.53,434.26,193.54,434.45,189.89Z"/><path class="cls-1" d="M416.49,492.29H318c-10.18-29.38-20.27-58.53-30.47-88h-162c-10,29.25-20.06,58.43-30.23,88.07H0c.66-2.75,1-5,1.75-7.15,40.52-116,83.41-231.1,133.34-343.45,8.11-18.26,17-36.15,25.12-54.41,2.56-5.77,6-7.6,12.17-7.51,23.32.31,46.64.43,70,0,7.51-.16,11,2.58,14.15,9.21q58,123.51,105.48,251.38c17.69,47.41,34.6,95.11,51.83,142.69C414.78,485.82,415.45,488.69,416.49,492.29ZM276.94,375.66a1640.86,1640.86,0,0,0-71-201.67C186,227,166.15,277.3,147,329.36c5.27.25,8.8.55,12.34.56,21,.05,41.94.27,62.91-.11,7.18-.13,12.48,1.64,17.41,7.21,9.91,11.21,20.58,21.75,31,32.53C272.64,371.66,274.83,373.63,276.94,375.66Z"/><path class="cls-1" d="M1258,180.05h87.77V191.2c.06,53.65-.15,107.3.38,161a168.16,168.16,0,0,0,4.57,36.56c5.72,24.36,19.8,35.78,44.93,35.69,16.9-.06,33.86-2.16,50.66-4.31,13.49-1.73,26.79-4.92,41.25-7.67-4.53-5.19-10.11-4.66-14.78-6.14-5.38-1.7-10.94-2.87-16.41-4.32-5.13-1.36-10.25-2.79-16.35-4.46-.21-4.1-.63-8.31-.63-12.52q-.06-117.47,0-234.94V136.39h-43.05L1484.55,0c5.67,4.43,82.17,121.22,89.1,136.15h-45.48V481.38c-3,1.18-5.3,2.39-7.76,3-45.15,11.17-90.93,17.34-137.49,15.57a200,200,0,0,1-38.48-5.36c-42.9-10.23-69.36-37.49-80.27-80.08a223.61,223.61,0,0,1-6.67-55.41q-.16-85,0-170C1257.48,186.52,1257.79,183.9,1258,180.05Z"/><path class="cls-1" d="M952,450.5c1.7,3.09,3.28,6.26,5.13,9.27a151.73,151.73,0,0,0,48.55,49.48c5.11,3.24,7,6.77,7,12.83-.35,23.65-.13,47.31-.17,71,0,2.93-.32,5.86-.53,9.46H924.67v-412c3-1,6.27-2.3,9.7-3.12,43.26-10.31,87-16.17,131.59-14.47a172,172,0,0,1,54.59,10.92c42.61,16.1,71.62,45.69,85.14,89.12,15.27,49,13.84,98.21-5.35,145.82-20.58,51.08-59.6,77.45-114.74,80-24.79,1.16-48.26-3.73-70.92-13.55A287,287,0,0,1,961.91,455c-2.69-1.93-5.41-3.84-8.11-5.75Zm61.29-199.59a43.87,43.87,0,0,0-.73,5.14c0,49.64,0,99.27-.15,148.91,0,5.05,1.84,7.93,6.35,10a104.19,104.19,0,0,0,34.65,8.86c36.34,3.06,58.21-13.35,66.79-45,5.67-20.88,5.76-42.14,3-63.44a92.54,92.54,0,0,0-13.72-38.23c-9-14.14-21.61-23.43-38.08-26.93C1052.14,246.16,1033,248,1013.27,250.91Z"/><path class="cls-1" d="M2051.34,365.43H1850.49c2,21.46,12.66,35.87,29.19,46.26,14.75,9.26,31.26,13,48.51,13.32,12.62.25,25.24.05,38.58.05v73.36c-6.37.69-12.56,1.7-18.79,2-25.65,1.18-51.36,1.71-76.42-5-61.47-16.48-98.29-56-109-119-5.33-31.19-5.31-62.54,3.63-93.08,17.24-59,54.73-97.37,116.07-109.55a153.87,153.87,0,0,1,87.39,7.93c38.53,15.14,63,43.62,74.83,83C2054.19,297.08,2055.46,330.14,2051.34,365.43Zm-84.12-61.17c-.4-35.61-23-59.54-55.6-59.88-34.42-.35-59,23.85-60.27,59.88Z"/><path class="cls-1" d="M1588.62,196.41c64.61-23.71,132.62-30.55,192.85-14.81-6,7-12,13.36-17.31,20.31a241.69,241.69,0,0,0-15,22.37c-4.56,7.68-8.36,15.82-12.7,24.16-19.83-.43-39.79-1.09-60,5.24V490.81c-7.76,2.5-71.69,3.24-87.83,1.2Z"/><g id="Aq4ayY.tif"><polyline class="cls-2" points="777.03 492.36 867.03 492.36 867.03 493.19 867.03 403.19 866.07 403.19 776.07 493.19 777.03 505.3 777.03 505.3"/></g></svg>
